<svg xmlns="http://www.w3.org/2000/svg" version="1.1" xmlns:xlink="http://www.w3.org/1999/xlink" xmlns:svgjs="http://svgjs.dev/svgjs" width="1000" height="623" viewBox="0 0 1000 623"><g transform="matrix(1,0,0,1,-0.6060606060606233,0.2522267206477409)"><svg viewBox="0 0 396 247" data-background-color="#046380" preserveAspectRatio="xMidYMid meet" height="623" width="1000" xmlns="http://www.w3.org/2000/svg" xmlns:xlink="http://www.w3.org/1999/xlink"><g id="tight-bounds" transform="matrix(1,0,0,1,0.2400000000000091,-0.09999999999999432)"><svg viewBox="0 0 395.52 247.2" height="247.2" width="395.52"><g><svg></svg></g><g><svg viewBox="0 0 395.52 247.2" height="247.2" width="395.52"><g transform="matrix(1,0,0,1,68.7216,37.08)"><svg viewBox="0 0 258.0768 173.04" height="173.04" width="258.0768"><g><svg viewBox="0 0 258.0768 173.04" height="173.04" width="258.0768"><g><svg viewBox="0 0 258.0768 173.04" height="173.04" width="258.0768"><g><svg viewBox="0 0 258.0768 173.04" height="173.04" width="258.0768"><g id="textblocktransform"><svg viewBox="0 0 258.0768 173.04" height="173.04" width="258.0768" id="textblock"><g><svg viewBox="0 0 258.0768 173.04" height="173.04" width="258.0768"><g transform="matrix(1,0,0,1,0,0)"><svg width="258.0768" viewBox="1.350000023841858 -35 52.20000076293945 35" height="173.04" data-palette-color="#ffffff"><path d="M14.35 0L13.45 0Q12.95 0 12.65-0.3 12.35-0.6 12.35-1.1L12.35-1.1 12.35-32 2.45-32Q1.95-32 1.65-32.3 1.35-32.6 1.35-33.1L1.35-33.1 1.35-33.85Q1.35-34.4 1.65-34.7 1.95-35 2.45-35L2.45-35 25.35-35Q25.9-35 26.2-34.7 26.5-34.4 26.5-33.85L26.5-33.85 26.5-33.1Q26.5-32.6 26.2-32.3 25.9-32 25.35-32L25.35-32 15.5-32 15.5-1.1Q15.5-0.6 15.2-0.3 14.9 0 14.35 0L14.35 0ZM33.8 0L33 0Q32.5 0 32.2-0.3 31.9-0.6 31.9-1.1L31.9-1.1 31.9-24.85Q31.9-25.35 32.2-25.68 32.5-26 33-26L33-26 33.8-26Q34.3-26 34.62-25.68 34.95-25.35 34.95-24.85L34.95-24.85 34.95-22.55Q35.85-24.3 37.55-25.15 39.25-26 41.75-26L41.75-26 43.6-26Q44.1-26 44.4-25.7 44.7-25.4 44.7-24.9L44.7-24.9 44.7-24.2Q44.7-23.7 44.4-23.4 44.1-23.1 43.6-23.1L43.6-23.1 41.45-23.1Q38.45-23.1 36.7-21.35 34.95-19.6 34.95-16.6L34.95-16.6 34.95-1.1Q34.95-0.6 34.62-0.3 34.3 0 33.8 0L33.8 0ZM52.4 0L50 0Q49.5 0 49.2-0.3 48.9-0.6 48.9-1.1L48.9-1.1 48.9-3.5Q48.9-4 49.2-4.33 49.5-4.65 50-4.65L50-4.65 52.4-4.65Q52.9-4.65 53.22-4.33 53.55-4 53.55-3.5L53.55-3.5 53.55-1.1Q53.55-0.6 53.22-0.3 52.9 0 52.4 0L52.4 0Z" opacity="1" transform="matrix(1,0,0,1,0,0)" fill="#ffffff" class="undefined-text-0" data-fill-palette-color="primary" id="text-0"></path></svg></g></svg></g></svg></g></svg></g></svg></g></svg></g></svg></g><g><path xmlns="http://www.w3.org/2000/svg" d="M0 247.2v-247.2h395.52v247.2zM379.915 231.595v-215.99h-364.31v215.99z" fill="#ffffff" fill-rule="nonzero" stroke="none" stroke-width="1" stroke-linecap="butt" stroke-linejoin="miter" stroke-miterlimit="10" stroke-dasharray="" stroke-dashoffset="0" font-family="none" font-weight="none" font-size="none" text-anchor="none" style="mix-blend-mode: normal" data-fill-palette-color="tertiary"></path></g></svg></g><defs></defs></svg><rect width="395.52" height="247.2" fill="none" stroke="none" visibility="hidden"></rect></g></svg></g></svg>